Mesh "ElQ4g" Dimension 2 Elemtype Quadrilateral Nnode  4
Coordinates
     1   1.0000000e+02  5.0000000e+01  
     2   1.0000000e+02  4.4444440e+01  
     3   9.4444440e+01  5.0000000e+01  
     4   9.4465900e+01  4.4297460e+01  
     5   8.8888890e+01  5.0000000e+01  
     6   1.0000000e+02  3.8888890e+01  
     7   9.4449280e+01  3.8904960e+01  
     8   8.8811380e+01  4.4455320e+01  
     9   8.8786660e+01  3.8785850e+01  
    10   8.3333330e+01  5.0000000e+01  
    11   1.0000000e+02  3.3333330e+01  
    12   9.4356370e+01  3.3254730e+01  
    13   8.3257250e+01  4.4299450e+01  
    14   8.8732660e+01  3.3077050e+01  
    15   8.3105750e+01  3.8539450e+01  
    16   7.7777780e+01  5.0000000e+01  
    17   1.0000000e+02  2.7777780e+01  
    18   9.4521770e+01  2.7698470e+01  
    19   7.7578560e+01  4.4339740e+01  
    20   8.3016520e+01  3.2711090e+01  
    21   8.8771080e+01  2.7556520e+01  
    22   7.7362570e+01  3.8361420e+01  
    23   7.2222220e+01  5.0000000e+01  
    24   1.0000000e+02  2.2222220e+01  
    25   9.4336580e+01  2.2184300e+01  
    26   8.2969710e+01  2.7218150e+01  
    27   7.7284350e+01  3.2776700e+01  
    28   7.1861770e+01  4.4429480e+01  
    29   8.8751470e+01  2.2092240e+01  
    30   7.1688350e+01  3.8553270e+01  
    31   7.7202770e+01  2.7216000e+01  
    32   8.3038610e+01  2.1987870e+01  
    33   7.1555530e+01  3.2818280e+01  
    34   6.6666670e+01  5.0000000e+01  
    35   1.0000000e+02  1.6666670e+01  
    36   9.4345520e+01  1.6638980e+01  
    37   6.6257010e+01  4.4475570e+01  
    38   8.8859620e+01  1.6640280e+01  
    39   6.6074650e+01  3.8734400e+01  
    40   7.7269360e+01  2.1853660e+01  
    41   7.1562890e+01  2.7230830e+01  
    42   8.3235550e+01  1.6643750e+01  
    43   6.5961780e+01  3.2927630e+01  
    44   6.1111110e+01  5.0000000e+01  
    45   1.0000000e+02  1.1111110e+01  
    46   9.4457400e+01  1.0942360e+01  
    47   6.0569480e+01  4.4587170e+01  
    48   7.1624870e+01  2.1627680e+01  
    49   7.7551630e+01  1.6341320e+01  
    50   8.8994670e+01  1.1015460e+01  
    51   6.6008650e+01  2.7397200e+01  
    52   6.0391480e+01  3.8981120e+01  
    53   8.3375660e+01  1.1073690e+01  
    54   6.0273710e+01  3.3299760e+01  
    55   7.2035130e+01  1.6109800e+01  
    56   6.6162040e+01  2.1665110e+01  
    57   5.5555560e+01  5.0000000e+01  
    58   1.0000000e+02  5.5555560e+00  
    59   9.4503510e+01  5.4981890e+00  
    60   7.7802730e+01  1.0685900e+01  
    61   5.5015180e+01  4.4597020e+01  
    62   6.0347910e+01  2.7765230e+01  
    63   8.9112200e+01  5.4948410e+00  
    64   5.4754690e+01  3.9070200e+01  
    65   8.3433360e+01  5.4667030e+00  
    66   6.6504680e+01  1.6091070e+01  
    67   7.2298430e+01  1.0548470e+01  
    68   5.4683110e+01  3.3538710e+01  
    69   6.0489280e+01  2.1849660e+01  
    70   7.7912240e+01  5.2982770e+00  
    71   5.0000000e+01  5.0000000e+01  
    72   1.0000000e+02  0.0000000e+00  
    73   9.4444440e+01  0.0000000e+00  
    74   5.4633040e+01  2.7888960e+01  
    75   4.9505480e+01  4.4506270e+01  
    76   8.8888890e+01  0.0000000e+00  
    77   6.6724520e+01  1.0592440e+01  
    78   6.0909230e+01  1.6083780e+01  
    79   4.9218430e+01  3.9177620e+01  
    80   7.2419850e+01  5.2320990e+00  
    81   8.3333330e+01  0.0000000e+00  
    82   5.4649970e+01  2.1865100e+01  
    83   4.9131320e+01  3.3657100e+01  
    84   7.7777780e+01  0.0000000e+00  
    85   6.1081050e+01  1.0610090e+01  
    86   4.4444440e+01  5.0000000e+01  
    87   4.9005800e+01  2.7880060e+01  
    88   6.6823860e+01  5.2363450e+00  
    89   4.4052080e+01  4.4466280e+01  
    90   5.5035840e+01  1.6073870e+01  
    91   7.2222220e+01  0.0000000e+00  
    92   4.3831540e+01  3.9189910e+01  
    93   4.9082090e+01  2.1912400e+01  
    94   4.3691670e+01  3.3739380e+01  
    95   6.1296610e+01  5.2077010e+00  
    96   5.5393830e+01  1.0556450e+01  
    97   6.6666670e+01  0.0000000e+00  
    98   4.3655020e+01  2.7909120e+01  
    99   4.9396130e+01  1.6135480e+01  
   100   3.8888890e+01  5.0000000e+01  
   101   3.8488520e+01  4.4561970e+01  
   102   3.8358880e+01  3.9175480e+01  
   103   4.3747090e+01  2.1990900e+01  
   104   5.5593850e+01  5.1840570e+00  
   105   6.1111110e+01  0.0000000e+00  
   106   3.8266600e+01  3.3705570e+01  
   107   4.9674510e+01  1.0474010e+01  
   108   3.8347270e+01  2.8044540e+01  
   109   4.3940690e+01  1.6200350e+01  
   110   3.3333330e+01  5.0000000e+01  
   111   5.5555560e+01  0.0000000e+00  
   112   5.0036320e+01  5.1138650e+00  
   113   3.2959980e+01  4.4655110e+01  
   114   3.8459170e+01  2.2060430e+01  
   115   3.2848860e+01  3.9244450e+01  
   116   4.4077540e+01  1.0435570e+01  
   117   3.2917190e+01  3.3644980e+01  
   118   3.8542020e+01  1.6239440e+01  
   119   3.2964590e+01  2.8084540e+01  
   120   5.0000000e+01  0.0000000e+00  
   121   4.4454860e+01  5.1020390e+00  
   122   2.7777780e+01  5.0000000e+01  
   123   3.3071360e+01  2.2138050e+01  
   124   2.7483050e+01  4.4510280e+01  
   125   3.8730750e+01  1.0603550e+01  
   126   2.7440880e+01  3.9164520e+01  
   127   2.7588720e+01  3.3545350e+01  
   128   4.4444440e+01  0.0000000e+00  
   129   3.3186100e+01  1.6212140e+01  
   130   2.7660280e+01  2.7983810e+01  
   131   3.8981340e+01  5.2050830e+00  
   132   2.7781320e+01  2.2390850e+01  
   133   3.3397120e+01  1.0607250e+01  
   134   2.2222220e+01  5.0000000e+01  
   135   2.1962870e+01  4.4638110e+01  
   136   2.1892390e+01  3.9129870e+01  
   137   3.8888890e+01  0.0000000e+00  
   138   2.7960810e+01  1.6460480e+01  
   139   2.2100220e+01  3.3670540e+01  
   140   3.3421060e+01  5.2900940e+00  
   141   2.2306490e+01  2.7914480e+01  
   142   2.8037550e+01  1.0806500e+01  
   143   2.2458670e+01  2.2363760e+01  
   144   1.6666670e+01  5.0000000e+01  
   145   3.3333330e+01  0.0000000e+00  
   146   1.6544860e+01  4.4537930e+01  
   147   1.6530750e+01  3.9108710e+01  
   148   2.2670870e+01  1.6592210e+01  
   149   2.7972440e+01  5.3480490e+00  
   150   1.6719370e+01  3.3744190e+01  
   151   1.6862760e+01  2.8049970e+01  
   152   2.2661180e+01  1.0947040e+01  
   153   1.6954000e+01  2.2529750e+01  
   154   2.7777780e+01  0.0000000e+00  
   155   1.1111110e+01  5.0000000e+01  
   156   1.1019160e+01  4.4404880e+01  
   157   1.7135370e+01  1.6838780e+01  
   158   2.2502030e+01  5.4233820e+00  
   159   1.0984350e+01  3.9076750e+01  
   160   1.1161280e+01  3.3630050e+01  
   161   1.1346770e+01  2.8243380e+01  
   162   1.6981580e+01  1.1142360e+01  
   163   2.2222220e+01  0.0000000e+00  
   164   1.1387220e+01  2.2540090e+01  
   165   1.6993620e+01  5.5352600e+00  
   166   5.5555560e+00  5.0000000e+01  
   167   1.1440880e+01  1.6824420e+01  
   168   5.5320330e+00  4.4460660e+01  
   169   5.5511590e+00  3.8926490e+01  
   170   5.6415550e+00  3.3531150e+01  
   171   5.7344600e+00  2.8125150e+01  
   172   1.1322330e+01  1.1142180e+01  
   173   1.6666670e+01  0.0000000e+00  
   174   5.7551890e+00  2.2447250e+01  
   175   1.1148780e+01  5.5151680e+00  
   176   0.0000000e+00  5.0000000e+01  
   177   5.6865550e+00  1.6742150e+01  
   178   0.0000000e+00  4.4444440e+01  
   179   0.0000000e+00  3.8888890e+01  
   180   0.0000000e+00  3.3333330e+01  
   181   1.1111110e+01  0.0000000e+00  
   182   5.7180770e+00  1.1086760e+01  
   183   0.0000000e+00  2.7777780e+01  
   184   0.0000000e+00  2.2222220e+01  
   185   5.6056040e+00  5.5393700e+00  
   186   0.0000000e+00  1.6666670e+01  
   187   5.5555560e+00  0.0000000e+00  
   188   0.0000000e+00  1.1111110e+01  
   189   0.0000000e+00  5.5555560e+00  
   190   0.0000000e+00  0.0000000e+00  
End coordinates
Elements
     1    73    72    58    59  1
     2     2     1     3     4  1
     3   166   176   178   168  1
     4   189   190   187   185  1
     5    76    73    59    63  1
     6     6     2     4     7  1
     7   155   166   168   156  1
     8   188   189   185   182  1
     9    81    76    63    65  1
    10    58    45    46    59  1
    11    11     6     7    12  1
    12     3     5     8     4  1
    13   144   155   156   146  1
    14   178   179   169   168  1
    15   186   188   182   177  1
    16   187   181   175   185  1
    17    84    81    65    70  1
    18    45    35    36    46  1
    19    17    11    12    18  1
    20     5    10    13     8  1
    21   134   144   146   135  1
    22   179   180   170   169  1
    23   184   186   177   174  1
    24   181   173   165   175  1
    25    91    84    70    80  1
    26    35    24    25    36  1
    27    24    17    18    25  1
    28    10    16    19    13  1
    29   122   134   135   124  1
    30   180   183   171   170  1
    31   183   184   174   171  1
    32   173   163   158   165  1
    33    97    91    80    88  1
    34    16    23    28    19  1
    35   110   122   124   113  1
    36   163   154   149   158  1
    37   105    97    88    95  1
    38    23    34    37    28  1
    39   100   110   113   101  1
    40   154   145   140   149  1
    41   111   105    95   104  1
    42    34    44    47    37  1
    43    86   100   101    89  1
    44   145   137   131   140  1
    45   120   111   104   112  1
    46    44    57    61    47  1
    47    71    86    89    75  1
    48    57    71    75    61  1
    49   137   128   121   131  1
    50   128   120   112   121  1
    51   185   175   172   182  1
    52   177   182   172   167  1
    53   175   165   162   172  1
    54   165   158   152   162  1
    55   158   149   142   152  1
    56   149   140   133   142  1
    57   140   131   125   133  1
    58   131   121   116   125  1
    59   121   112   107   116  1
    60   112   104    96   107  1
    61   104    95    85    96  1
    62    95    88    77    85  1
    63    88    80    67    77  1
    64    80    70    60    67  1
    65    70    65    53    60  1
    66    63    59    46    50  1
    67    65    63    50    53  1
    68   168   169   159   156  1
    69   174   177   167   164  1
    70    46    36    38    50  1
    71    36    25    29    38  1
    72   171   174   164   161  1
    73   169   170   160   159  1
    74   170   171   161   160  1
    75    25    18    21    29  1
    76    18    12    14    21  1
    77    12     7     9    14  1
    78     7     4     8     9  1
    79   146   156   159   147  1
    80   135   146   147   136  1
    81   124   135   136   126  1
    82   113   124   126   115  1
    83   101   113   115   102  1
    84    89   101   102    92  1
    85    75    89    92    79  1
    86    61    75    79    64  1
    87    47    61    64    52  1
    88    37    47    52    39  1
    89    28    37    39    30  1
    90    19    28    30    22  1
    91    13    19    22    15  1
    92     8    13    15     9  1
    93   167   172   162   157  1
    94   162   152   148   157  1
    95   152   142   138   148  1
    96   142   133   129   138  1
    97   133   125   118   129  1
    98   147   159   160   150  1
    99   125   116   109   118  1
   100   136   147   150   139  1
   101   126   136   139   127  1
   102   115   126   127   117  1
   103     9    15    20    14  1
   104    21    14    20    26  1
   105   164   167   157   153  1
   106   161   164   153   151  1
   107   160   161   151   150  1
   108   102   115   117   106  1
   109    92   102   106    94  1
   110    79    92    94    83  1
   111    64    79    83    68  1
   112    52    64    68    54  1
   113    39    52    54    43  1
   114    30    39    43    33  1
   115    15    22    27    20  1
   116    22    30    33    27  1
   117    53    50    38    42  1
   118   116   107    99   109  1
   119    29    21    26    32  1
   120    26    20    27    31  1
   121    38    29    32    42  1
   122    60    53    42    49  1
   123    67    60    49    55  1
   124    77    67    55    66  1
   125    85    77    66    78  1
   126   107    96    90    99  1
   127    96    85    78    90  1
   128   139   150   151   141  1
   129   127   139   141   130  1
   130   117   127   130   119  1
   131   106   117   119   108  1
   132    94   106   108    98  1
   133    83    94    98    87  1
   134    68    83    87    74  1
   135    49    42    32    40  1
   136    55    49    40    48  1
   137    66    55    48    56  1
   138    78    66    56    69  1
   139   153   157   148   143  1
   140   151   153   143   141  1
   141   148   138   132   143  1
   142   141   143   132   130  1
   143    54    68    74    62  1
   144    43    54    62    51  1
   145   138   129   123   132  1
   146   130   132   123   119  1
   147   129   118   114   123  1
   148   119   123   114   108  1
   149    33    43    51    41  1
   150    27    33    41    31  1
   151    32    26    31    40  1
   152    40    31    41    48  1
   153    48    41    51    56  1
   154    56    51    62    69  1
   155   118   109   103   114  1
   156   108   114   103    98  1
   157   109    99    93   103  1
   158    98   103    93    87  1
   159    90    78    69    82  1
   160    69    62    74    82  1
   161    74    87    93    82  1
   162    82    93    99    90  1
End elements
Mesh "ElT3g" Dimension 2 Elemtype Triangle Nnode  3
Coordinates
End coordinates
Elements
End elements
Mesh "StressBL2g" Dimension 2 Elemtype Line Nnode  2
Coordinates
End coordinates
Elements
End elements
