Mesh "ElQ4g" Dimension 2 Elemtype Quadrilateral Nnode  4
Coordinates
     1   0.0000000e+00  0.0000000e+00  
     2   5.0000000e-01  0.0000000e+00  
     3   1.0000000e+00  0.0000000e+00  
     4   0.0000000e+00  5.0000000e-01  
     5   5.0000000e-01  5.0000000e-01  
     6   1.0000000e+00  5.0000000e-01  
     7   0.0000000e+00  1.0000000e+00  
     8   5.0000000e-01  1.0000000e+00  
     9   1.0000000e+00  1.0000000e+00  
End coordinates
Elements
     1     1     2     5     4  1
     2     4     5     8     7  1
End elements
Mesh "ElT3g" Dimension 2 Elemtype Triangle Nnode  3
Coordinates
End coordinates
Elements
     3     2     3     6  1
     4     2     6     5  1
     5     5     6     9  1
     6     5     9     8  1
End elements
Mesh "StressBL2g" Dimension 2 Elemtype Line Nnode  2
Coordinates
End coordinates
Elements
End elements
