Mesh "ElT3" Dimension 2 Elemtype Triangle Nnode  3
Coordinates
     1   0.0000000e+00  0.0000000e+00  
     2   3.3333333e-01  0.0000000e+00  
     3   6.6666667e-01  0.0000000e+00  
     4   1.0000000e+00  0.0000000e+00  
     5   0.0000000e+00  3.3333333e-01  
     6   3.3333333e-01  3.3333333e-01  
     7   6.6666667e-01  3.3333333e-01  
     8   1.0000000e+00  3.3333333e-01  
     9   0.0000000e+00  6.6666667e-01  
    10   3.3333333e-01  6.6666667e-01  
    11   6.6666667e-01  6.6666667e-01  
    12   1.0000000e+00  6.6666667e-01  
    13   0.0000000e+00  1.0000000e+00  
    14   3.3333333e-01  1.0000000e+00  
    15   6.6666667e-01  1.0000000e+00  
    16   1.0000000e+00  1.0000000e+00  
End coordinates
Elements
     1     1     2     6  1
     2     1     6     5  1
     3     2     3     7  1
     4     2     7     6  1
     5     3     4     8  1
     6     3     8     7  1
     7     5     6    10  1
     8     5    10     9  1
     9     6     7    11  1
    10     6    11    10  1
    11     7     8    12  1
    12     7    12    11  1
    13     9    10    14  1
    14     9    14    13  1
    15    10    11    15  1
    16    10    15    14  1
    17    11    12    16  1
    18    11    16    15  1
End elements
