Mesh "ElT3" Dimension 2 Elemtype Triangle Nnode  3
Coordinates
     1   0.0000000e+00  0.0000000e+00  
     2   5.0000000e-01  0.0000000e+00  
     3   1.0000000e+00  0.0000000e+00  
     4   0.0000000e+00  5.0000000e-01  
     5   5.0000000e-01  5.0000000e-01  
     6   1.0000000e+00  5.0000000e-01  
     7   0.0000000e+00  1.0000000e+00  
     8   5.0000000e-01  1.0000000e+00  
     9   1.0000000e+00  1.0000000e+00  
End coordinates
Elements
     1     1     2     5  1
     2     1     5     4  1
     3     2     3     6  1
     4     2     6     5  1
     5     4     5     8  1
     6     4     8     7  1
     7     5     6     9  1
     8     5     9     8  1
End elements
